<?xml version="1.0" encoding="iso-8859-1"?>
<!-- Generator: Adobe Illustrator 16.0.0, SVG Export Plug-In . SVG Version: 6.00 Build 0)  -->
<!DOCTYPE svg PUBLIC "-//W3C//DTD SVG 1.1//EN" "http://www.w3.org/Graphics/SVG/1.1/DTD/svg11.dtd">
<svg xmlns="http://www.w3.org/2000/svg" xmlns:xlink="http://www.w3.org/1999/xlink" version="1.1" id="Capa_1" x="0px" y="0px" width="512px" height="512px" viewBox="0 0 471.362 471.362" style="enable-background:new 0 0 471.362 471.362;" xml:space="preserve">
<g>
	<g>
		<path d="M30.259,85.075c-1.903-1.903-4.093-2.856-6.567-2.856s-4.661,0.953-6.563,2.856L2.852,99.353    C0.95,101.255,0,103.442,0,105.918c0,2.478,0.95,4.664,2.852,6.567L115.06,224.69L2.852,336.896C0.95,338.799,0,340.989,0,343.46    c0,2.478,0.95,4.665,2.852,6.567l14.276,14.273c1.903,1.906,4.089,2.854,6.563,2.854s4.665-0.951,6.567-2.854l133.048-133.045    c1.903-1.902,2.853-4.096,2.853-6.57c0-2.473-0.95-4.663-2.853-6.565L30.259,85.075z" fill="#FFFFFF"/>
	</g>
</g>
<g>
</g>
<g>
</g>
<g>
</g>
<g>
</g>
<g>
</g>
<g>
</g>
<g>
</g>
<g>
</g>
<g>
</g>
<g>
</g>
<g>
</g>
<g>
</g>
<g>
</g>
<g>
</g>
<g>
</g>
</svg>
